<?xml version="1.0" encoding="utf-8"?>
<!-- Generator: Adobe Illustrator 13.0.0, SVG Export Plug-In . SVG Version: 6.00 Build 14948)  -->
<!DOCTYPE svg PUBLIC "-//W3C//DTD SVG 1.1//EN" "http://www.w3.org/Graphics/SVG/1.1/DTD/svg11.dtd">
<svg version="1.1" xmlns="http://www.w3.org/2000/svg" xmlns:xlink="http://www.w3.org/1999/xlink" x="0px" y="0px" width="1600px"
	 height="1000px" viewBox="0 0 1600 1000" enable-background="new 0 0 1600 1000" xml:space="preserve">
<g id="Layer_2">
	<rect x="-14.633" y="40.218" fill="#FFFF00" width="174.834" height="994.665"/>
</g>
<g id="Layer_1">
	<path fill="#919191" stroke="#FFFFFF" d="M258.822,1040.475H-15.215V28.593h274.037V1040.475z M130.168,150.345h-145.28v171.265
		h145.28V150.345z M128.22,377.529H-17.06v171.265h145.28V377.529z M130.602,603.521H-14.677v171.265h145.279V603.521z
		 M130.622,831.479H-14.657v171.265h145.279V831.479z"/>
	<polygon fill="#636363" points="256.156,1039.736 360.096,1039.736 359.617,69.541 256.156,28.688 	"/>
	<line fill="none" stroke="#3F3F3F" x1="-16.686" y1="576.731" x2="256.156" y2="575.55"/>
	<line fill="none" stroke="#3F3F3F" x1="-14.314" y1="349.166" x2="258.528" y2="347.985"/>
	<line fill="none" stroke="#3F3F3F" x1="-14.314" y1="802.722" x2="258.528" y2="801.54"/>
	<line fill="none" stroke="#3F3F3F" x1="-17.858" y1="122.377" x2="254.984" y2="121.196"/>
	<line fill="none" stroke="#3F3F3F" x1="256.221" y1="576.34" x2="356.019" y2="616.012"/>
	<line fill="none" stroke="#3F3F3F" x1="257.093" y1="348.773" x2="356.89" y2="388.445"/>
	<line fill="none" stroke="#3F3F3F" x1="257.093" y1="802.33" x2="356.89" y2="842.002"/>
	<line fill="none" stroke="#3F3F3F" x1="255.79" y1="121.984" x2="355.588" y2="161.657"/>
</g>
</svg>
